# xmcd
# 
# Track frame offsets:
#     150
#     6396
#     16348
#     25115
#     40325
#     52722
#     81315
#     98010
#     115305
#     134235
#     148554
#     164636
# 
# Disc length: 2856
# 
# Revision: 0
# Processed by: cddbd v1.5.2PL0 Copyright (c) Steve Scherf et al.
# Submitted via: fre:ac v1.0.27
# 
DISCID=9e0b260c
DTITLE=Various Artist - GALA 2012 CD1
DYEAR=2012
DGENRE=
TTITLE0=FMLB - The Danserye - 1.
TTITLE1=FMLB - The Danserye - 2.
TTITLE2=FMLB - The Danserye - 3.
TTITLE3=FMLB - The Danserye - 4.
TTITLE4=FMLB - The Danserye - 5.
TTITLE5=FMLB - Horn Concerto N° 2 - 1.
TTITLE6=FMLB - Horn Concerto N° 2 - 2.
TTITLE7=FMLB - Horn Concerto N° 2 - 3.
TTITLE8=FMLB - First Suite in Eb - 1.
TTITLE9=FMLB - First Suite in Eb - 2.
TTITLE10=FMLB - First Suite in Eb - 3.
TTITLE11=FMLB - Pilatus: Mountain of Dragons
EXTD=
EXTT0=
EXTT1=
EXTT2=
EXTT3=
EXTT4=
EXTT5=
EXTT6=
EXTT7=
EXTT8=
EXTT9=
EXTT10=
EXTT11=
PLAYORDER=
